<?xml version="1.0" encoding="UTF-8" standalone="no"?>
<?xml-stylesheet type="text/css" href="/auxy/livesig.css" ?>
<svg
   xmlns="http://www.w3.org/2000/svg"
   version="1.1"
   width="1260"
   height="470">
  <g id="layer1">
    <!-- Background -->
    <rect x="0" y="0" width="1260" height="470" class="back" />

    <!-- Tracks -->
    <line x1="0"   y1="120" x2="570" y2="120" class="track" /><!-- Up -->
    <line x1="0"   y1="80"  x2="90"  y2="80"  class="track" /><!-- Waterloo -->
    <line x1="89"  y1="80"  x2="130" y2="120" class="track" />
    <line x1="210" y1="80"  x2="300" y2="80"  class="track" /><!-- Olive -->
    <line x1="299" y1="80"  x2="340" y2="120" class="track" />
    <line x1="420" y1="240" x2="570" y2="240" class="track" /><!-- Down -->
    <!-- Roby Jn - Huyton Jn -->
    <line x1="599"  y1="200" x2="1260" y2="200" class="track" />
    <line x1="601"  y1="200" x2="584"  y2="222" class="track" />
    <line x1="588"  y1="240" x2="792"  y2="240" class="track" />
    <line x1="810"  y1="240" x2="1260" y2="240" class="track" />
    <line x1="570"  y1="120" x2="770"  y2="120" class="track" />
    <line x1="780"  y1="140" x2="810"  y2="200" class="track" />
    <line x1="783"  y1="100" x2="811"  y2="60"  class="track" /><!-- Up St H -->
    <line x1="871"  y1="100" x2="830"  y2="200" class="track" /><!-- Dn St H -->
    <line x1="869"  y1="100" x2="1260" y2="100" class="track" /><!-- Dn St H -->
    <line x1="809"  y1="60"  x2="1230" y2="60"  class="track" /><!-- Up St H -->
    <line x1="1230" y1="60"  x2="1260" y2="60"  class="track-off" /><!-- Up St H -->
    <line x1="770"  y1="200" x2="796"  y2="225" class="track" />
<!-- Lower panel -->
    <line x1="0"    y1="360" x2="350"  y2="360" class="track-off" /><!-- Up St H-->
    <line x1="0"    y1="400" x2="350"  y2="400" class="track" /><!-- Dn St H-->
    <line x1="500"  y1="360" x2="760"  y2="360" class="track" /><!-- Up CM -->
    <line x1="760"  y1="360" x2="1000" y2="360" class="track-off" /><!-- Up CM -->
    <line x1="500"  y1="400" x2="1000" y2="400" class="track" /><!-- Dn CM -->

<!-- Tech park -->
    <rect x="142" y="94" width="64" height="12" class="platform" />
<!-- BG -->
    <rect x="422" y="94" width="64" height="12" class="platform" />

<!-- Huyton platforms -->
    <rect x="692" y="56"  width="64" height="12" class="platform-closed" />
    <rect x="692" y="135" width="64" height="12" class="platform" />
    <rect x="700" y="112" width="48" height="16" class="describer" />
    <rect x="692" y="174" width="64" height="12" class="platform" />
    <rect x="700" y="192" width="48" height="16" class="describer" />
    <rect x="692" y="255" width="64" height="12" class="platform" />
    <rect x="700" y="232" width="48" height="16" class="describer" />
<!-- Roby platforms -->
    <rect x="612" y="56"  width="64" height="12" class="platform-closed" />
    <rect x="612" y="135" width="64" height="12" class="platform" />
    <rect x="620" y="112" width="48" height="16" class="describer" />
    <rect x="612" y="174" width="64" height="12" class="platform" />
    <rect x="620" y="192" width="48" height="16" class="describer" />
    <rect x="612" y="255" width="64" height="12" class="platform" />
    <rect x="620" y="232" width="48" height="16" class="describer" />
 
    <rect x="20"  y="72"  width="48" height="16" class="describer" /><!--E034-->
    <rect x="20"  y="112" width="48" height="16" class="describer" />
    <rect x="150" y="112" width="48" height="16" class="describer" /><!--E300-->
    <rect x="230" y="72"  width="48" height="16" class="describer" /><!--E400-->
    <rect x="360" y="112" width="48" height="16" class="describer" /><!--E298-->
    <rect x="430" y="112" width="48" height="16" class="describer" /><!--E296-->
    <rect x="430" y="232" width="48" height="16" class="describer" /><!--E295-->

    <rect x="850" y="52"  width="48" height="16" class="describer" /><!--3754-->
    <rect x="925" y="92"  width="48" height="16" class="describer" /><!--3755-->
    <rect x="850" y="192" width="48" height="16" class="describer" /><!--3584-->
    <rect x="865" y="232" width="48" height="16" class="describer" /><!--3585-->

    <rect x="510" y="232"  width="48" height="16" class="describer" /><!--3593-->
    <rect x="500" y="112"  width="48" height="16" class="describer" /><!--3592-->

    <rect x="940" y="52"  width="48" height="16" class="describer" /><!--3750-->

    <rect x="1030" y="52"  width="48" height="16" class="describer" /><!--3746-->
    <rect x="1022" y="34"  width="64" height="12" class="platform" />
    <rect x="1030" y="92" width="48" height="16" class="describer" /><!--3749-->
    <rect x="1022" y="115" width="64" height="12" class="platform" />

    <rect x="1145" y="52"  width="48" height="16" class="describer" /><!--S101-->
    <rect x="1137" y="34"  width="64" height="12" class="platform" />
    <rect x="1137" y="115" width="64" height="12" class="platform" />

    <rect x="30"   y="392" width="48" height="16" class="describer" /><!--3745-->
    <rect x="22"   y="415" width="64" height="12" class="platform"  /><!--Thatto Down-->
    <rect x="110"  y="392" width="48" height="16" class="describer" /><!--3739-->
    <rect x="190"  y="392" width="48" height="16" class="describer" /><!--S112-->
    <rect x="270"  y="392" width="48" height="16" class="describer" /><!--S022-->
    <rect x="262"  y="415" width="64" height="12" class="platform"  /><!--St H Down-->

    <rect x="920" y="192" width="48" height="16" class="describer" /><!--3582-->
    <rect x="955" y="232" width="48" height="16" class="describer" /><!--3581-->

    <rect x="990"  y="192" width="48" height="16" class="describer" /><!--3580-->
    <rect x="1052" y="174" width="64" height="12" class="platform" />
    <rect x="1060" y="192" width="48" height="16" class="describer" /><!--3578-->
    <rect x="1060" y="232" width="48" height="16" class="describer" /><!--3579-->
    <rect x="1052" y="255" width="64" height="12" class="platform" />

    <rect x="1150" y="192" width="48" height="16" class="describer" /><!--3576-->
    <rect x="1150" y="232" width="48" height="16" class="describer" /><!--3577-->
    <rect x="520" y="352" width="48" height="16" class="describer" /><!--3574-->
    <rect x="592" y="334" width="64" height="12" class="platform"  /><!--Rainhill-->
    <rect x="600" y="352" width="48" height="16" class="describer" /><!--3572-->
    <rect x="600" y="392" width="48" height="16" class="describer" /><!--3575-->
    <rect x="592" y="415" width="64" height="12" class="platform"  />
    <rect x="680" y="352" width="48" height="16" class="describer" /><!--W589-->
    <rect x="680" y="392" width="48" height="16" class="describer" /><!--3573-->
    <rect x="760" y="392" width="48" height="16" class="describer" /><!--W588-->
    <rect x="840" y="392" width="48" height="16" class="describer" /><!--W586-->
    <rect x="832" y="415" width="64" height="12" class="platform"  /><!--Lea Green Dn -->
    <rect x="920" y="392" width="48" height="16" class="describer" /><!--W584-->


    <text class="describer-text">
      <tspan x="24"  y="85"  id="bE034">E034</tspan>
      <tspan x="24"  y="125" id="bE036">E036</tspan>
      <tspan x="154" y="125" id="bE300">E300</tspan>
      <tspan x="234" y="85"  id="bE400">E400</tspan>
      <tspan x="364" y="125" id="bE298">E298</tspan>
      <tspan x="434" y="125" id="bE296">E296</tspan>
      <tspan x="434" y="245" id="bE295">E295</tspan>

      <tspan x="704"  y="205" id="b5579">5579</tspan>
      <tspan x="624"  y="205" id="b5583">5583</tspan>
      <tspan x="704"  y="245" id="b3587">3587</tspan>
      <tspan x="624"  y="245" id="b3591">3591</tspan>
      <tspan x="704"  y="125" id="b3586">3586</tspan>
      <tspan x="624"  y="125" id="b3590">3590</tspan>
      <tspan x="854"  y="65"  id="b3754">3754</tspan>
      <tspan x="929"  y="105" id="b3755">3755</tspan>
      <tspan x="854"  y="205" id="b3584">3584</tspan>
      <tspan x="869"  y="245" id="b3585">3585</tspan>
      <tspan x="514"  y="245" id="b3593">3593</tspan>
      <tspan x="504"  y="125" id="b3592">3592</tspan>

      <tspan x="944"  y="65"  id="b3750">3750</tspan>

      <tspan x="1034"  y="65"  id="b3746">3746</tspan>
      <tspan x="1034"  y="105" id="b3749">3749</tspan>

      <tspan x="1149"  y="65"  id="bS101">S101</tspan>
      <tspan x="34"    y="405" id="b3745">3745</tspan>
      <tspan x="114"   y="405" id="b3739">3739</tspan>
      <tspan x="194"   y="405" id="bS112">S112</tspan>
      <tspan x="274"   y="405" id="bS022">S022</tspan>

      <tspan x="924"  y="205" id="b3582">3582</tspan>
      <tspan x="959"  y="245" id="b3581">3581</tspan>

      <tspan x="994"  y="205" id="b3580">3580</tspan>
      <tspan x="1064" y="205" id="b3578">3578</tspan>
      <tspan x="1064" y="245" id="b3579">3579</tspan>

      <tspan x="1154" y="205" id="b3576">3576</tspan>
      <tspan x="1154" y="245" id="b3577">3577</tspan>

      <tspan x="524" y="365" id="b3574">3574</tspan>
      <tspan x="604" y="365" id="b3572">3572</tspan>
      <tspan x="604" y="405" id="b3575">3575</tspan>

      <tspan x="684" y="365" id="bW589">W589</tspan>
      <tspan x="684" y="405" id="b3573">3573</tspan>

      <tspan x="764" y="405" id="bW588">W588</tspan>
      <tspan x="844" y="405" id="bW586">W586</tspan>
      <tspan x="924" y="405" id="bW584">W584</tspan>

    </text>

    <text class="platform-text">
      <tspan x="696" y="67" >P4</tspan>
      <tspan x="616" y="67" >P4</tspan>
      <tspan x="696" y="142">P3</tspan>
      <tspan x="616" y="142">P3</tspan>
      <tspan x="696" y="187">P2</tspan>
      <tspan x="616" y="187">P2</tspan>
      <tspan x="696" y="262">P1</tspan>
      <tspan x="616" y="262">P1</tspan>
    </text>
    <text class="caption-text">
      <tspan x="10"  y="462" id="caption"></tspan>
    </text>
    <text class="label-text">
      <tspan x="130" y="45">Wavertree</tspan>
      <tspan x="400" y="45">Broad Green</tspan>
      <tspan x="615" y="45">Roby</tspan>
      <tspan x="690" y="45">Huyton</tspan>
      <tspan x="1020" y="25">Prescot</tspan>
      <tspan x="1110" y="25">Eccleston Pk.</tspan>
      <tspan x="20"   y="325">Thatto H.</tspan>
      <tspan x="260"  y="325">St Helens</tspan>
      <tspan x="1045" y="165">Whiston</tspan>
      <tspan x="595"  y="325">Rainhill</tspan>
      <tspan x="830"  y="325">Lea Green</tspan>
    </text>
    <text class="label-text-small">
      <tspan x="10"  y="65">Waterloo Sidings</tspan>
      <tspan x="200" y="65">Olive Mount Chord</tspan>
      <tspan x="230" y="140">Up Chat Moss</tspan>
      <tspan x="480" y="270">Down Chat Moss</tspan>
      <tspan x="860" y="35">Up St Helens</tspan>
      <tspan x="930" y="130">Dn St Helens</tspan>
      <tspan x="880" y="175">Up Chat Moss</tspan>
      <tspan x="920" y="270">Down Chat Moss</tspan>
<!-- Lower panel -->
      <tspan x="150" y="425">Down St Helens</tspan>
      <tspan x="780" y="350">Up Chat Moss</tspan>
      <tspan x="720" y="425">Down Chat Moss</tspan>

    </text>

    <!-- Arrows -->
    <line x1="470" y1="265" x2="440" y2="265" class="arrow" />
    <polygon points="440,263 440,267 430,265" class="arrow" />
    <line x1="320" y1="135" x2="350" y2="135" class="arrow" />
    <polygon points="350,133 350,137 360,135" class="arrow" />
    <line x1="910" y1="265" x2="880" y2="265" class="arrow" />
    <polygon points="880,263 880,267 870,265" class="arrow" />
    <line x1="970" y1="170" x2="1000" y2="170" class="arrow" /><!-- Up Chat Moss -->
    <polygon points="1000,168 1000,172 1010,170" class="arrow" />
    <line x1="950" y1="30" x2="980" y2="30" class="arrow" /><!-- Up St Helens -->
    <polygon points="980,28 980,32 990,30" class="arrow" />
    <line x1="920" y1="125" x2="890" y2="125" class="arrow" /><!-- Dn St Helens -->
    <polygon points="890,123 890,127 880,125" class="arrow" />
<!-- Lower Panel -->
    <line x1="110" y1="420" x2="140" y2="420" class="arrow" />
    <polygon points="110,418 110,422 100,420" class="arrow" />
    <line x1="870" y1="345" x2="900" y2="345" class="arrow" />
    <polygon points="900,343 900,347 910,345" class="arrow" />
    <line x1="680" y1="420" x2="710" y2="420" class="arrow" />
    <polygon points="680,418 680,422 670,420" class="arrow" />

    <!-- Info panel --> 
    <rect x="0" y="168" width="400" height="122" class="describer" />

    <text class="info-text">
      <tspan x="4" y="178" id="info0"></tspan>
      <tspan x="4" y="188" id="info1"></tspan>
      <tspan x="4" y="198" id="info2"></tspan>
      <tspan x="4" y="208" id="info3"></tspan>
      <tspan x="4" y="218" id="info4"></tspan>
      <tspan x="4" y="228" id="info5"></tspan>
      <tspan x="4" y="238" id="info6"></tspan>
      <tspan x="4" y="248" id="info7"></tspan>
      <tspan x="4" y="258" id="info8"></tspan>
      <tspan x="4" y="268" id="info9"></tspan>
      <tspan x="4" y="278" id="info10"></tspan>
      <tspan x="4" y="288" id="info11">livesig.svg    Build V811</tspan>
   </text>

    <!-- Routes -->
    <!-- 3586 to 3584 or 3754 -->
    <line x1="770" y1="120" x2="780" y2="140" class="track" id="s55"/>
    <line x1="770" y1="120" x2="783" y2="100" class="track" id="s54"/>
    <!-- 5583 or 3591 to 3593 -->
    <line x1="570" y1="240" x2="584" y2="222" class="track" id="s63"/>
    <line x1="570" y1="240" x2="588" y2="240" class="track" id="s57"/>
    <!-- 3585 to 3587 or 5579 -->
    <line x1="810" y1="240" x2="792" y2="240" class="track" id="s52"/>
    <line x1="810" y1="240" x2="796" y2="225" class="track" id="s53"/>

    <!-- Signals -->
    <!-- 3592 -->
    <line x1="555" y1="120" x2="555" y2="130" class="sig-line" />
    <line x1="565" y1="130" x2="555" y2="130" class="sig-line" />
    <circle cx="570" cy="130" r="5" stroke="black" stroke-width="0" fill="black" id="s22"/>
    <!-- 3590 s20-->
    <line x1="675" y1="120" x2="675" y2="130" class="sig-line" />
    <line x1="685" y1="130" x2="675" y2="130" class="sig-line" />
    <circle cx="690" cy="130" r="5" stroke="black" stroke-width="0" fill="black" id="s20"/>
    <!-- 3586 s16-->
    <line x1="755" y1="120" x2="755" y2="130" class="sig-line" />
    <line x1="765" y1="130" x2="755" y2="130" class="sig-line" />
    <circle cx="770" cy="130" r="5" stroke="black" stroke-width="0" fill="black" id="s16"/>
    <!-- 3585 s15 -->
    <line x1="855" y1="240" x2="855" y2="250" class="sig-line" />
    <line x1="845" y1="250" x2="855" y2="250" class="sig-line" />
    <circle cx="840" cy="250" r="5" stroke="black" stroke-width="0" fill="black" id="s15"/>
    <!-- 3587 s17 -->
    <line x1="690" y1="240" x2="690" y2="250" class="sig-line" />
    <line x1="680" y1="250" x2="690" y2="250" class="sig-line" />
    <circle cx="675" cy="250" r="5" stroke="black" stroke-width="0" fill="black" id="s17"/>
    <!-- 3591 s21 -->
    <line x1="610" y1="240" x2="610" y2="250" class="sig-line" />
    <line x1="600" y1="250" x2="610" y2="250" class="sig-line" />
    <circle cx="595" cy="250" r="5" stroke="black" stroke-width="0" fill="black" id="s21"/>
    <!-- 5579 s33 -->
    <line x1="690" y1="200" x2="690" y2="210" class="sig-line" />
    <line x1="680" y1="210" x2="690" y2="210" class="sig-line" />
    <circle cx="675" cy="210" r="5" stroke="black" stroke-width="0" fill="black" id="s33"/>
    <!-- 5583 s34 -->
    <line x1="610" y1="200" x2="610" y2="210" class="sig-line" />
    <line x1="600" y1="210" x2="610" y2="210" class="sig-line" />
    <circle cx="595" cy="210" r="5" stroke="black" stroke-width="0" fill="black" id="s34"/>
    <!-- 3593 -->
    <line x1="500" y1="240" x2="500" y2="250" class="sig-line" />
    <line x1="490" y1="250" x2="500" y2="250" class="sig-line" />
    <circle cx="485" cy="250" r="5" stroke="black" stroke-width="0" fill="black" id="s23"/>
    <!-- 3573 -->
    <line x1="670" y1="400" x2="670" y2="410" class="sig-line" />
    <line x1="660" y1="410" x2="670" y2="410" class="sig-line" />
    <circle cx="655" cy="410" r="5" stroke="black" stroke-width="0" fill="black" id="s02"/>
    <!-- 3575 -->
    <line x1="590" y1="400" x2="590" y2="410" class="sig-line" />
    <line x1="580" y1="410" x2="590" y2="410" class="sig-line" />
    <circle cx="575" cy="410" r="5" stroke="black" stroke-width="0" fill="black" id="s04"/>
    <!-- 3577 -->
    <line x1="1140" y1="240" x2="1140" y2="250" class="sig-line" />
    <line x1="1130" y1="250" x2="1140" y2="250" class="sig-line" />
    <circle cx="1125" cy="250" r="5" stroke="black" stroke-width="0" fill="black" id="s06"/>
    <!-- 3579 -->
    <line x1="1050" y1="240" x2="1050" y2="250" class="sig-line" />
    <line x1="1040" y1="250" x2="1050" y2="250" class="sig-line" />
    <circle cx="1035" cy="250" r="5" stroke="black" stroke-width="0" fill="black" id="s10"/>
    <!-- 3581 -->
    <line x1="945" y1="240" x2="945" y2="250" class="sig-line" />
    <line x1="935" y1="250" x2="945" y2="250" class="sig-line" />
    <circle cx="930" cy="250" r="5" stroke="black" stroke-width="0" fill="black" id="s12"/>
    <!-- 3745 -->
    <line x1="20" y1="400" x2="20" y2="410" class="sig-line" />
    <line x1="10" y1="410" x2="20" y2="410" class="sig-line" />
    <circle cx="5" cy="410" r="5" stroke="black" stroke-width="0" fill="black" id="s25"/>
    <!-- 3739 -->
    <line x1="100" y1="400" x2="100" y2="410" class="sig-line" />
    <line x1="90"  y1="410" x2="100" y2="410" class="sig-line" />
    <circle cx="85" cy="410" r="5" stroke="black" stroke-width="0" fill="black" id="s24"/>
    <!-- 3574 -->
    <line x1="575"   y1="360" x2="575" y2="350" class="sig-line" />
    <line x1="585"   y1="350" x2="575" y2="350" class="sig-line" />
    <circle cx="590" cy="350" r="5" stroke="black" stroke-width="0" fill="black" id="s03"/>
    <!-- 3572 -->
    <line x1="655" y1="360" x2="655" y2="350" class="sig-line" />
    <line x1="665"  y1="350" x2="655" y2="350" class="sig-line" />
    <circle cx="670" cy="350" r="5" stroke="black" stroke-width="0" fill="black" id="s01"/>
    <!-- 3584 -->
    <line x1="905"   y1="200" x2="905" y2="190" class="sig-line" />
    <line x1="915"   y1="190" x2="905" y2="190" class="sig-line" />
    <circle cx="920" cy="190" r="5" stroke="black" stroke-width="0" fill="black" id="s14"/>
    <!-- 3582 -->
    <line x1="975"   y1="200" x2="975" y2="190" class="sig-line" />
    <line x1="985"   y1="190" x2="975" y2="190" class="sig-line" />
    <circle cx="990" cy="190" r="5" stroke="black" stroke-width="0" fill="black" id="s13"/>
    <!-- 3580 -->
    <line x1="1045"   y1="200" x2="1045" y2="190" class="sig-line" />
    <line x1="1055"   y1="190" x2="1045" y2="190" class="sig-line" />
    <circle cx="1060" cy="190" r="5" stroke="black" stroke-width="0" fill="black" id="s11"/>
    <!-- 3578 -->
    <line x1="1115"   y1="200" x2="1115" y2="190" class="sig-line" />
    <line x1="1125"   y1="190" x2="1115" y2="190" class="sig-line" />
    <circle cx="1130" cy="190" r="5" stroke="black" stroke-width="0" fill="black" id="s07"/>
    <!-- 3576 -->
    <line x1="1205"   y1="200" x2="1205" y2="190" class="sig-line" />
    <line x1="1215"   y1="190" x2="1205" y2="190" class="sig-line" />
    <circle cx="1220" cy="190" r="5" stroke="black" stroke-width="0" fill="black" id="s05"/>
    <!-- 3755 -->
    <line x1="915"   y1="100" x2="915" y2="110" class="sig-line" />
    <line x1="905"   y1="110" x2="915" y2="110" class="sig-line" />
    <circle cx="900" cy="110" r="5" stroke="black" stroke-width="0" fill="black" id="s32"/>
    <!-- 3749 -->
    <line x1="1020"   y1="100" x2="1020" y2="110" class="sig-line" />
    <line x1="1010"   y1="110" x2="1020" y2="110" class="sig-line" />
    <circle cx="1005" cy="110" r="5" stroke="black" stroke-width="0" fill="black" id="s27"/>
    <!-- 3754 -->
    <line x1="905"   y1="60" x2="905" y2="50" class="sig-line" />
    <line x1="915"   y1="50" x2="905" y2="50" class="sig-line" />
    <circle cx="920" cy="50" r="5" stroke="black" stroke-width="0" fill="black" id="s31"/>
    <!-- 3750 -->
    <line x1="995"    y1="60" x2="995" y2="50" class="sig-line" />
    <line x1="1005"   y1="50" x2="995" y2="50" class="sig-line" />
    <circle cx="1010" cy="50" r="5" stroke="black" stroke-width="0" fill="black" id="s30"/>
    <!-- 3746 -->
    <line x1="1085"   y1="60" x2="1085" y2="50" class="sig-line" />
    <line x1="1095"   y1="50" x2="1085" y2="50" class="sig-line" />
    <circle cx="1100" cy="50" r="5" stroke="black" stroke-width="0" fill="black" id="s26"/>
   </g>
</svg>

